<mxfile host="app.diagrams.net" modified="2023-02-16T03:51:51.888Z" agent="5.0 (Windows NT 10.0; Win64; x64) AppleWebKit/537.36 (KHTML, like Gecko) Chrome/110.0.0.0 Safari/537.36 Edg/110.0.1587.41" etag="pLzDuQ47JKI7zR4WEQVA" version="20.8.20" type="github" pages="2">
  <diagram name="第 1 页" id="p8ck5x74KDtnNAqTxpPJ">
    <mxGraphModel dx="1387" dy="796" grid="1" gridSize="10" guides="1" tooltips="1" connect="1" arrows="1" fold="1" page="1" pageScale="1" pageWidth="827" pageHeight="1169" math="0" shadow="0">
      <root>
        <mxCell id="0" />
        <mxCell id="1" parent="0" />
        <mxCell id="og7DTZFmnV0VFqazqApT-1" value="检测" style="rounded=0;whiteSpace=wrap;html=1;fillColor=#ffe6cc;strokeColor=none;" vertex="1" parent="1">
          <mxGeometry x="80" y="120" width="120" height="80" as="geometry" />
        </mxCell>
        <mxCell id="og7DTZFmnV0VFqazqApT-2" value="复判" style="rounded=0;whiteSpace=wrap;html=1;fillColor=#fff2cc;strokeColor=none;" vertex="1" parent="1">
          <mxGeometry x="280" y="120" width="120" height="80" as="geometry" />
        </mxCell>
        <mxCell id="og7DTZFmnV0VFqazqApT-3" value="打点" style="rounded=0;whiteSpace=wrap;html=1;fillColor=#f8cecc;strokeColor=none;" vertex="1" parent="1">
          <mxGeometry x="480" y="120" width="120" height="80" as="geometry" />
        </mxCell>
        <mxCell id="og7DTZFmnV0VFqazqApT-4" value="" style="html=1;shadow=0;dashed=0;align=center;verticalAlign=middle;shape=mxgraph.arrows2.arrow;dy=0.6;dx=40;notch=0;strokeColor=none;fillColor=#B3B3B3;" vertex="1" parent="1">
          <mxGeometry x="200" y="140" width="80" height="40" as="geometry" />
        </mxCell>
        <mxCell id="og7DTZFmnV0VFqazqApT-5" value="" style="html=1;shadow=0;dashed=0;align=center;verticalAlign=middle;shape=mxgraph.arrows2.arrow;dy=0.6;dx=40;notch=0;strokeColor=none;fillColor=#B3B3B3;" vertex="1" parent="1">
          <mxGeometry x="400" y="140" width="80" height="40" as="geometry" />
        </mxCell>
        <mxCell id="og7DTZFmnV0VFqazqApT-6" value="数据库" style="shape=cylinder3;whiteSpace=wrap;html=1;boundedLbl=1;backgroundOutline=1;size=15;fillColor=#dae8fc;strokeColor=none;" vertex="1" parent="1">
          <mxGeometry x="160" y="376.19" width="56" height="80" as="geometry" />
        </mxCell>
        <mxCell id="og7DTZFmnV0VFqazqApT-10" value="图像文件" style="whiteSpace=wrap;html=1;aspect=fixed;fillColor=#dae8fc;strokeColor=none;" vertex="1" parent="1">
          <mxGeometry x="285" y="372.38" width="80" height="80" as="geometry" />
        </mxCell>
        <mxCell id="og7DTZFmnV0VFqazqApT-14" style="edgeStyle=none;rounded=0;orthogonalLoop=1;jettySize=auto;html=1;exitX=0.25;exitY=1;exitDx=0;exitDy=0;entryX=0.5;entryY=0;entryDx=0;entryDy=0;entryPerimeter=0;fillColor=#dae8fc;strokeColor=default;" edge="1" parent="1" source="og7DTZFmnV0VFqazqApT-12" target="og7DTZFmnV0VFqazqApT-6">
          <mxGeometry relative="1" as="geometry" />
        </mxCell>
        <mxCell id="og7DTZFmnV0VFqazqApT-15" style="edgeStyle=none;rounded=0;orthogonalLoop=1;jettySize=auto;html=1;exitX=0.5;exitY=1;exitDx=0;exitDy=0;entryX=0.5;entryY=0;entryDx=0;entryDy=0;fillColor=#dae8fc;strokeColor=default;" edge="1" parent="1" source="og7DTZFmnV0VFqazqApT-12" target="og7DTZFmnV0VFqazqApT-10">
          <mxGeometry relative="1" as="geometry" />
        </mxCell>
        <mxCell id="og7DTZFmnV0VFqazqApT-21" style="edgeStyle=none;rounded=0;orthogonalLoop=1;jettySize=auto;html=1;exitX=0.864;exitY=1;exitDx=0;exitDy=0;entryX=0.413;entryY=-0.024;entryDx=0;entryDy=0;exitPerimeter=0;entryPerimeter=0;fillColor=#dae8fc;strokeColor=default;" edge="1" parent="1" source="og7DTZFmnV0VFqazqApT-12" target="og7DTZFmnV0VFqazqApT-19">
          <mxGeometry relative="1" as="geometry" />
        </mxCell>
        <mxCell id="og7DTZFmnV0VFqazqApT-12" value="持久层" style="rounded=0;whiteSpace=wrap;html=1;fillColor=#dae8fc;strokeColor=none;" vertex="1" parent="1">
          <mxGeometry x="50" y="320" width="550" height="20" as="geometry" />
        </mxCell>
        <mxCell id="og7DTZFmnV0VFqazqApT-18" value="" style="html=1;shadow=0;dashed=0;align=center;verticalAlign=middle;shape=mxgraph.arrows2.twoWayArrow;dy=0.6;dx=20;fillColor=#B3B3B3;rotation=90;strokeColor=none;" vertex="1" parent="1">
          <mxGeometry x="300" y="230" width="90" height="50" as="geometry" />
        </mxCell>
        <mxCell id="og7DTZFmnV0VFqazqApT-19" value="map图" style="whiteSpace=wrap;html=1;aspect=fixed;fillColor=#dae8fc;strokeColor=none;" vertex="1" parent="1">
          <mxGeometry x="490" y="376.19" width="86" height="76.19" as="geometry" />
        </mxCell>
        <mxCell id="og7DTZFmnV0VFqazqApT-23" value="" style="html=1;shadow=0;dashed=0;align=center;verticalAlign=middle;shape=mxgraph.arrows2.twoWayArrow;dy=0.6;dx=20;fillColor=#B3B3B3;rotation=90;strokeColor=none;" vertex="1" parent="1">
          <mxGeometry x="90" y="230" width="90" height="50" as="geometry" />
        </mxCell>
      </root>
    </mxGraphModel>
  </diagram>
  <diagram id="rQnYQ0IVWUdhG4f8yzSH" name="第 2 页">
    <mxGraphModel dx="2214" dy="796" grid="1" gridSize="10" guides="1" tooltips="1" connect="1" arrows="1" fold="1" page="1" pageScale="1" pageWidth="827" pageHeight="1169" math="0" shadow="0">
      <root>
        <mxCell id="0" />
        <mxCell id="1" parent="0" />
        <mxCell id="qw0dFXDPhThTfiMplLx7-1" value="" style="ellipse;whiteSpace=wrap;html=1;aspect=fixed;fillColor=#B3B3B3;strokeColor=none;align=left;" vertex="1" parent="1">
          <mxGeometry x="120" y="100" width="525" height="525" as="geometry" />
        </mxCell>
        <mxCell id="qw0dFXDPhThTfiMplLx7-2" value="" style="shape=table;startSize=0;container=1;collapsible=0;childLayout=tableLayout;fontSize=16;fillColor=none;align=left;" vertex="1" parent="1">
          <mxGeometry x="100" y="80" width="570" height="560" as="geometry" />
        </mxCell>
        <mxCell id="qw0dFXDPhThTfiMplLx7-3" value="" style="shape=tableRow;horizontal=0;startSize=0;swimlaneHead=0;swimlaneBody=0;strokeColor=inherit;top=0;left=0;bottom=0;right=0;collapsible=0;dropTarget=0;fillColor=none;points=[[0,0.5],[1,0.5]];portConstraint=eastwest;fontSize=16;align=left;" vertex="1" parent="qw0dFXDPhThTfiMplLx7-2">
          <mxGeometry width="570" height="80" as="geometry" />
        </mxCell>
        <mxCell id="qw0dFXDPhThTfiMplLx7-59" value="1" style="shape=partialRectangle;html=1;whiteSpace=wrap;connectable=0;strokeColor=inherit;overflow=hidden;fillColor=none;top=0;left=0;bottom=0;right=0;pointerEvents=1;fontSize=16;align=left;" vertex="1" parent="qw0dFXDPhThTfiMplLx7-3">
          <mxGeometry width="95" height="80" as="geometry">
            <mxRectangle width="95" height="80" as="alternateBounds" />
          </mxGeometry>
        </mxCell>
        <mxCell id="qw0dFXDPhThTfiMplLx7-4" value="14" style="shape=partialRectangle;html=1;whiteSpace=wrap;connectable=0;strokeColor=inherit;overflow=hidden;fillColor=none;top=0;left=0;bottom=0;right=0;pointerEvents=1;fontSize=16;align=left;" vertex="1" parent="qw0dFXDPhThTfiMplLx7-3">
          <mxGeometry x="95" width="95" height="80" as="geometry">
            <mxRectangle width="95" height="80" as="alternateBounds" />
          </mxGeometry>
        </mxCell>
        <mxCell id="qw0dFXDPhThTfiMplLx7-5" value="15" style="shape=partialRectangle;html=1;whiteSpace=wrap;connectable=0;strokeColor=inherit;overflow=hidden;fillColor=none;top=0;left=0;bottom=0;right=0;pointerEvents=1;fontSize=16;align=left;" vertex="1" parent="qw0dFXDPhThTfiMplLx7-3">
          <mxGeometry x="190" width="95" height="80" as="geometry">
            <mxRectangle width="95" height="80" as="alternateBounds" />
          </mxGeometry>
        </mxCell>
        <mxCell id="qw0dFXDPhThTfiMplLx7-6" value="28" style="shape=partialRectangle;html=1;whiteSpace=wrap;connectable=0;strokeColor=inherit;overflow=hidden;fillColor=none;top=0;left=0;bottom=0;right=0;pointerEvents=1;fontSize=16;align=left;" vertex="1" parent="qw0dFXDPhThTfiMplLx7-3">
          <mxGeometry x="285" width="95" height="80" as="geometry">
            <mxRectangle width="95" height="80" as="alternateBounds" />
          </mxGeometry>
        </mxCell>
        <mxCell id="qw0dFXDPhThTfiMplLx7-45" value="29" style="shape=partialRectangle;html=1;whiteSpace=wrap;connectable=0;strokeColor=inherit;overflow=hidden;fillColor=none;top=0;left=0;bottom=0;right=0;pointerEvents=1;fontSize=16;align=left;" vertex="1" parent="qw0dFXDPhThTfiMplLx7-3">
          <mxGeometry x="380" width="95" height="80" as="geometry">
            <mxRectangle width="95" height="80" as="alternateBounds" />
          </mxGeometry>
        </mxCell>
        <mxCell id="qw0dFXDPhThTfiMplLx7-52" value="42" style="shape=partialRectangle;html=1;whiteSpace=wrap;connectable=0;strokeColor=inherit;overflow=hidden;fillColor=none;top=0;left=0;bottom=0;right=0;pointerEvents=1;fontSize=16;align=left;" vertex="1" parent="qw0dFXDPhThTfiMplLx7-3">
          <mxGeometry x="475" width="95" height="80" as="geometry">
            <mxRectangle width="95" height="80" as="alternateBounds" />
          </mxGeometry>
        </mxCell>
        <mxCell id="qw0dFXDPhThTfiMplLx7-7" value="" style="shape=tableRow;horizontal=0;startSize=0;swimlaneHead=0;swimlaneBody=0;strokeColor=inherit;top=0;left=0;bottom=0;right=0;collapsible=0;dropTarget=0;fillColor=none;points=[[0,0.5],[1,0.5]];portConstraint=eastwest;fontSize=16;align=left;" vertex="1" parent="qw0dFXDPhThTfiMplLx7-2">
          <mxGeometry y="80" width="570" height="81" as="geometry" />
        </mxCell>
        <mxCell id="qw0dFXDPhThTfiMplLx7-60" value="2" style="shape=partialRectangle;html=1;whiteSpace=wrap;connectable=0;strokeColor=inherit;overflow=hidden;fillColor=none;top=0;left=0;bottom=0;right=0;pointerEvents=1;fontSize=16;align=left;" vertex="1" parent="qw0dFXDPhThTfiMplLx7-7">
          <mxGeometry width="95" height="81" as="geometry">
            <mxRectangle width="95" height="81" as="alternateBounds" />
          </mxGeometry>
        </mxCell>
        <mxCell id="qw0dFXDPhThTfiMplLx7-8" value="13" style="shape=partialRectangle;html=1;whiteSpace=wrap;connectable=0;strokeColor=inherit;overflow=hidden;fillColor=none;top=0;left=0;bottom=0;right=0;pointerEvents=1;fontSize=16;align=left;" vertex="1" parent="qw0dFXDPhThTfiMplLx7-7">
          <mxGeometry x="95" width="95" height="81" as="geometry">
            <mxRectangle width="95" height="81" as="alternateBounds" />
          </mxGeometry>
        </mxCell>
        <mxCell id="qw0dFXDPhThTfiMplLx7-9" value="16" style="shape=partialRectangle;html=1;whiteSpace=wrap;connectable=0;strokeColor=inherit;overflow=hidden;fillColor=none;top=0;left=0;bottom=0;right=0;pointerEvents=1;fontSize=16;align=left;" vertex="1" parent="qw0dFXDPhThTfiMplLx7-7">
          <mxGeometry x="190" width="95" height="81" as="geometry">
            <mxRectangle width="95" height="81" as="alternateBounds" />
          </mxGeometry>
        </mxCell>
        <mxCell id="qw0dFXDPhThTfiMplLx7-10" value="27" style="shape=partialRectangle;html=1;whiteSpace=wrap;connectable=0;strokeColor=inherit;overflow=hidden;fillColor=none;top=0;left=0;bottom=0;right=0;pointerEvents=1;fontSize=16;align=left;" vertex="1" parent="qw0dFXDPhThTfiMplLx7-7">
          <mxGeometry x="285" width="95" height="81" as="geometry">
            <mxRectangle width="95" height="81" as="alternateBounds" />
          </mxGeometry>
        </mxCell>
        <mxCell id="qw0dFXDPhThTfiMplLx7-46" value="30" style="shape=partialRectangle;html=1;whiteSpace=wrap;connectable=0;strokeColor=inherit;overflow=hidden;fillColor=none;top=0;left=0;bottom=0;right=0;pointerEvents=1;fontSize=16;align=left;" vertex="1" parent="qw0dFXDPhThTfiMplLx7-7">
          <mxGeometry x="380" width="95" height="81" as="geometry">
            <mxRectangle width="95" height="81" as="alternateBounds" />
          </mxGeometry>
        </mxCell>
        <mxCell id="qw0dFXDPhThTfiMplLx7-53" value="41" style="shape=partialRectangle;html=1;whiteSpace=wrap;connectable=0;strokeColor=inherit;overflow=hidden;fillColor=none;top=0;left=0;bottom=0;right=0;pointerEvents=1;fontSize=16;align=left;" vertex="1" parent="qw0dFXDPhThTfiMplLx7-7">
          <mxGeometry x="475" width="95" height="81" as="geometry">
            <mxRectangle width="95" height="81" as="alternateBounds" />
          </mxGeometry>
        </mxCell>
        <mxCell id="qw0dFXDPhThTfiMplLx7-11" value="" style="shape=tableRow;horizontal=0;startSize=0;swimlaneHead=0;swimlaneBody=0;strokeColor=inherit;top=0;left=0;bottom=0;right=0;collapsible=0;dropTarget=0;fillColor=none;points=[[0,0.5],[1,0.5]];portConstraint=eastwest;fontSize=16;align=left;" vertex="1" parent="qw0dFXDPhThTfiMplLx7-2">
          <mxGeometry y="161" width="570" height="80" as="geometry" />
        </mxCell>
        <mxCell id="qw0dFXDPhThTfiMplLx7-61" value="3" style="shape=partialRectangle;html=1;whiteSpace=wrap;connectable=0;strokeColor=inherit;overflow=hidden;fillColor=none;top=0;left=0;bottom=0;right=0;pointerEvents=1;fontSize=16;align=left;" vertex="1" parent="qw0dFXDPhThTfiMplLx7-11">
          <mxGeometry width="95" height="80" as="geometry">
            <mxRectangle width="95" height="80" as="alternateBounds" />
          </mxGeometry>
        </mxCell>
        <mxCell id="qw0dFXDPhThTfiMplLx7-12" value="12" style="shape=partialRectangle;html=1;whiteSpace=wrap;connectable=0;strokeColor=inherit;overflow=hidden;fillColor=none;top=0;left=0;bottom=0;right=0;pointerEvents=1;fontSize=16;align=left;" vertex="1" parent="qw0dFXDPhThTfiMplLx7-11">
          <mxGeometry x="95" width="95" height="80" as="geometry">
            <mxRectangle width="95" height="80" as="alternateBounds" />
          </mxGeometry>
        </mxCell>
        <mxCell id="qw0dFXDPhThTfiMplLx7-13" value="17" style="shape=partialRectangle;html=1;whiteSpace=wrap;connectable=0;strokeColor=inherit;overflow=hidden;fillColor=none;top=0;left=0;bottom=0;right=0;pointerEvents=1;fontSize=16;align=left;" vertex="1" parent="qw0dFXDPhThTfiMplLx7-11">
          <mxGeometry x="190" width="95" height="80" as="geometry">
            <mxRectangle width="95" height="80" as="alternateBounds" />
          </mxGeometry>
        </mxCell>
        <mxCell id="qw0dFXDPhThTfiMplLx7-14" value="26" style="shape=partialRectangle;html=1;whiteSpace=wrap;connectable=0;strokeColor=inherit;overflow=hidden;fillColor=none;top=0;left=0;bottom=0;right=0;pointerEvents=1;fontSize=16;align=left;" vertex="1" parent="qw0dFXDPhThTfiMplLx7-11">
          <mxGeometry x="285" width="95" height="80" as="geometry">
            <mxRectangle width="95" height="80" as="alternateBounds" />
          </mxGeometry>
        </mxCell>
        <mxCell id="qw0dFXDPhThTfiMplLx7-47" value="31" style="shape=partialRectangle;html=1;whiteSpace=wrap;connectable=0;strokeColor=inherit;overflow=hidden;fillColor=none;top=0;left=0;bottom=0;right=0;pointerEvents=1;fontSize=16;align=left;" vertex="1" parent="qw0dFXDPhThTfiMplLx7-11">
          <mxGeometry x="380" width="95" height="80" as="geometry">
            <mxRectangle width="95" height="80" as="alternateBounds" />
          </mxGeometry>
        </mxCell>
        <mxCell id="qw0dFXDPhThTfiMplLx7-54" value="40" style="shape=partialRectangle;html=1;whiteSpace=wrap;connectable=0;strokeColor=inherit;overflow=hidden;fillColor=none;top=0;left=0;bottom=0;right=0;pointerEvents=1;fontSize=16;align=left;" vertex="1" parent="qw0dFXDPhThTfiMplLx7-11">
          <mxGeometry x="475" width="95" height="80" as="geometry">
            <mxRectangle width="95" height="80" as="alternateBounds" />
          </mxGeometry>
        </mxCell>
        <mxCell id="qw0dFXDPhThTfiMplLx7-29" style="shape=tableRow;horizontal=0;startSize=0;swimlaneHead=0;swimlaneBody=0;strokeColor=inherit;top=0;left=0;bottom=0;right=0;collapsible=0;dropTarget=0;fillColor=none;points=[[0,0.5],[1,0.5]];portConstraint=eastwest;fontSize=16;align=left;" vertex="1" parent="qw0dFXDPhThTfiMplLx7-2">
          <mxGeometry y="241" width="570" height="78" as="geometry" />
        </mxCell>
        <mxCell id="qw0dFXDPhThTfiMplLx7-62" value="4" style="shape=partialRectangle;html=1;whiteSpace=wrap;connectable=0;strokeColor=inherit;overflow=hidden;fillColor=none;top=0;left=0;bottom=0;right=0;pointerEvents=1;fontSize=16;align=left;" vertex="1" parent="qw0dFXDPhThTfiMplLx7-29">
          <mxGeometry width="95" height="78" as="geometry">
            <mxRectangle width="95" height="78" as="alternateBounds" />
          </mxGeometry>
        </mxCell>
        <mxCell id="qw0dFXDPhThTfiMplLx7-30" value="11" style="shape=partialRectangle;html=1;whiteSpace=wrap;connectable=0;strokeColor=inherit;overflow=hidden;fillColor=none;top=0;left=0;bottom=0;right=0;pointerEvents=1;fontSize=16;align=left;" vertex="1" parent="qw0dFXDPhThTfiMplLx7-29">
          <mxGeometry x="95" width="95" height="78" as="geometry">
            <mxRectangle width="95" height="78" as="alternateBounds" />
          </mxGeometry>
        </mxCell>
        <mxCell id="qw0dFXDPhThTfiMplLx7-31" value="18" style="shape=partialRectangle;html=1;whiteSpace=wrap;connectable=0;strokeColor=inherit;overflow=hidden;fillColor=none;top=0;left=0;bottom=0;right=0;pointerEvents=1;fontSize=16;align=left;" vertex="1" parent="qw0dFXDPhThTfiMplLx7-29">
          <mxGeometry x="190" width="95" height="78" as="geometry">
            <mxRectangle width="95" height="78" as="alternateBounds" />
          </mxGeometry>
        </mxCell>
        <mxCell id="qw0dFXDPhThTfiMplLx7-32" value="25" style="shape=partialRectangle;html=1;whiteSpace=wrap;connectable=0;strokeColor=inherit;overflow=hidden;fillColor=none;top=0;left=0;bottom=0;right=0;pointerEvents=1;fontSize=16;align=left;" vertex="1" parent="qw0dFXDPhThTfiMplLx7-29">
          <mxGeometry x="285" width="95" height="78" as="geometry">
            <mxRectangle width="95" height="78" as="alternateBounds" />
          </mxGeometry>
        </mxCell>
        <mxCell id="qw0dFXDPhThTfiMplLx7-48" value="32" style="shape=partialRectangle;html=1;whiteSpace=wrap;connectable=0;strokeColor=inherit;overflow=hidden;fillColor=none;top=0;left=0;bottom=0;right=0;pointerEvents=1;fontSize=16;align=left;" vertex="1" parent="qw0dFXDPhThTfiMplLx7-29">
          <mxGeometry x="380" width="95" height="78" as="geometry">
            <mxRectangle width="95" height="78" as="alternateBounds" />
          </mxGeometry>
        </mxCell>
        <mxCell id="qw0dFXDPhThTfiMplLx7-55" value="39" style="shape=partialRectangle;html=1;whiteSpace=wrap;connectable=0;strokeColor=inherit;overflow=hidden;fillColor=none;top=0;left=0;bottom=0;right=0;pointerEvents=1;fontSize=16;align=left;" vertex="1" parent="qw0dFXDPhThTfiMplLx7-29">
          <mxGeometry x="475" width="95" height="78" as="geometry">
            <mxRectangle width="95" height="78" as="alternateBounds" />
          </mxGeometry>
        </mxCell>
        <mxCell id="qw0dFXDPhThTfiMplLx7-33" style="shape=tableRow;horizontal=0;startSize=0;swimlaneHead=0;swimlaneBody=0;strokeColor=inherit;top=0;left=0;bottom=0;right=0;collapsible=0;dropTarget=0;fillColor=none;points=[[0,0.5],[1,0.5]];portConstraint=eastwest;fontSize=16;align=left;" vertex="1" parent="qw0dFXDPhThTfiMplLx7-2">
          <mxGeometry y="319" width="570" height="80" as="geometry" />
        </mxCell>
        <mxCell id="qw0dFXDPhThTfiMplLx7-63" value="5" style="shape=partialRectangle;html=1;whiteSpace=wrap;connectable=0;strokeColor=inherit;overflow=hidden;fillColor=none;top=0;left=0;bottom=0;right=0;pointerEvents=1;fontSize=16;align=left;" vertex="1" parent="qw0dFXDPhThTfiMplLx7-33">
          <mxGeometry width="95" height="80" as="geometry">
            <mxRectangle width="95" height="80" as="alternateBounds" />
          </mxGeometry>
        </mxCell>
        <mxCell id="qw0dFXDPhThTfiMplLx7-34" value="10" style="shape=partialRectangle;html=1;whiteSpace=wrap;connectable=0;strokeColor=inherit;overflow=hidden;fillColor=none;top=0;left=0;bottom=0;right=0;pointerEvents=1;fontSize=16;align=left;" vertex="1" parent="qw0dFXDPhThTfiMplLx7-33">
          <mxGeometry x="95" width="95" height="80" as="geometry">
            <mxRectangle width="95" height="80" as="alternateBounds" />
          </mxGeometry>
        </mxCell>
        <mxCell id="qw0dFXDPhThTfiMplLx7-35" value="19" style="shape=partialRectangle;html=1;whiteSpace=wrap;connectable=0;strokeColor=inherit;overflow=hidden;fillColor=none;top=0;left=0;bottom=0;right=0;pointerEvents=1;fontSize=16;align=left;" vertex="1" parent="qw0dFXDPhThTfiMplLx7-33">
          <mxGeometry x="190" width="95" height="80" as="geometry">
            <mxRectangle width="95" height="80" as="alternateBounds" />
          </mxGeometry>
        </mxCell>
        <mxCell id="qw0dFXDPhThTfiMplLx7-36" value="24" style="shape=partialRectangle;html=1;whiteSpace=wrap;connectable=0;strokeColor=inherit;overflow=hidden;fillColor=none;top=0;left=0;bottom=0;right=0;pointerEvents=1;fontSize=16;align=left;" vertex="1" parent="qw0dFXDPhThTfiMplLx7-33">
          <mxGeometry x="285" width="95" height="80" as="geometry">
            <mxRectangle width="95" height="80" as="alternateBounds" />
          </mxGeometry>
        </mxCell>
        <mxCell id="qw0dFXDPhThTfiMplLx7-49" value="33" style="shape=partialRectangle;html=1;whiteSpace=wrap;connectable=0;strokeColor=inherit;overflow=hidden;fillColor=none;top=0;left=0;bottom=0;right=0;pointerEvents=1;fontSize=16;align=left;" vertex="1" parent="qw0dFXDPhThTfiMplLx7-33">
          <mxGeometry x="380" width="95" height="80" as="geometry">
            <mxRectangle width="95" height="80" as="alternateBounds" />
          </mxGeometry>
        </mxCell>
        <mxCell id="qw0dFXDPhThTfiMplLx7-56" value="38" style="shape=partialRectangle;html=1;whiteSpace=wrap;connectable=0;strokeColor=inherit;overflow=hidden;fillColor=none;top=0;left=0;bottom=0;right=0;pointerEvents=1;fontSize=16;align=left;" vertex="1" parent="qw0dFXDPhThTfiMplLx7-33">
          <mxGeometry x="475" width="95" height="80" as="geometry">
            <mxRectangle width="95" height="80" as="alternateBounds" />
          </mxGeometry>
        </mxCell>
        <mxCell id="qw0dFXDPhThTfiMplLx7-37" style="shape=tableRow;horizontal=0;startSize=0;swimlaneHead=0;swimlaneBody=0;strokeColor=inherit;top=0;left=0;bottom=0;right=0;collapsible=0;dropTarget=0;fillColor=none;points=[[0,0.5],[1,0.5]];portConstraint=eastwest;fontSize=16;align=left;" vertex="1" parent="qw0dFXDPhThTfiMplLx7-2">
          <mxGeometry y="399" width="570" height="81" as="geometry" />
        </mxCell>
        <mxCell id="qw0dFXDPhThTfiMplLx7-64" value="6" style="shape=partialRectangle;html=1;whiteSpace=wrap;connectable=0;strokeColor=inherit;overflow=hidden;fillColor=none;top=0;left=0;bottom=0;right=0;pointerEvents=1;fontSize=16;align=left;" vertex="1" parent="qw0dFXDPhThTfiMplLx7-37">
          <mxGeometry width="95" height="81" as="geometry">
            <mxRectangle width="95" height="81" as="alternateBounds" />
          </mxGeometry>
        </mxCell>
        <mxCell id="qw0dFXDPhThTfiMplLx7-38" value="9" style="shape=partialRectangle;html=1;whiteSpace=wrap;connectable=0;strokeColor=inherit;overflow=hidden;fillColor=none;top=0;left=0;bottom=0;right=0;pointerEvents=1;fontSize=16;align=left;" vertex="1" parent="qw0dFXDPhThTfiMplLx7-37">
          <mxGeometry x="95" width="95" height="81" as="geometry">
            <mxRectangle width="95" height="81" as="alternateBounds" />
          </mxGeometry>
        </mxCell>
        <mxCell id="qw0dFXDPhThTfiMplLx7-39" value="20" style="shape=partialRectangle;html=1;whiteSpace=wrap;connectable=0;strokeColor=inherit;overflow=hidden;fillColor=none;top=0;left=0;bottom=0;right=0;pointerEvents=1;fontSize=16;align=left;" vertex="1" parent="qw0dFXDPhThTfiMplLx7-37">
          <mxGeometry x="190" width="95" height="81" as="geometry">
            <mxRectangle width="95" height="81" as="alternateBounds" />
          </mxGeometry>
        </mxCell>
        <mxCell id="qw0dFXDPhThTfiMplLx7-40" value="23" style="shape=partialRectangle;html=1;whiteSpace=wrap;connectable=0;strokeColor=inherit;overflow=hidden;fillColor=none;top=0;left=0;bottom=0;right=0;pointerEvents=1;fontSize=16;align=left;" vertex="1" parent="qw0dFXDPhThTfiMplLx7-37">
          <mxGeometry x="285" width="95" height="81" as="geometry">
            <mxRectangle width="95" height="81" as="alternateBounds" />
          </mxGeometry>
        </mxCell>
        <mxCell id="qw0dFXDPhThTfiMplLx7-50" value="34" style="shape=partialRectangle;html=1;whiteSpace=wrap;connectable=0;strokeColor=inherit;overflow=hidden;fillColor=none;top=0;left=0;bottom=0;right=0;pointerEvents=1;fontSize=16;align=left;" vertex="1" parent="qw0dFXDPhThTfiMplLx7-37">
          <mxGeometry x="380" width="95" height="81" as="geometry">
            <mxRectangle width="95" height="81" as="alternateBounds" />
          </mxGeometry>
        </mxCell>
        <mxCell id="qw0dFXDPhThTfiMplLx7-57" value="37" style="shape=partialRectangle;html=1;whiteSpace=wrap;connectable=0;strokeColor=inherit;overflow=hidden;fillColor=none;top=0;left=0;bottom=0;right=0;pointerEvents=1;fontSize=16;align=left;" vertex="1" parent="qw0dFXDPhThTfiMplLx7-37">
          <mxGeometry x="475" width="95" height="81" as="geometry">
            <mxRectangle width="95" height="81" as="alternateBounds" />
          </mxGeometry>
        </mxCell>
        <mxCell id="qw0dFXDPhThTfiMplLx7-41" style="shape=tableRow;horizontal=0;startSize=0;swimlaneHead=0;swimlaneBody=0;strokeColor=inherit;top=0;left=0;bottom=0;right=0;collapsible=0;dropTarget=0;fillColor=none;points=[[0,0.5],[1,0.5]];portConstraint=eastwest;fontSize=16;align=left;" vertex="1" parent="qw0dFXDPhThTfiMplLx7-2">
          <mxGeometry y="480" width="570" height="80" as="geometry" />
        </mxCell>
        <mxCell id="qw0dFXDPhThTfiMplLx7-65" value="7" style="shape=partialRectangle;html=1;whiteSpace=wrap;connectable=0;strokeColor=inherit;overflow=hidden;fillColor=none;top=0;left=0;bottom=0;right=0;pointerEvents=1;fontSize=16;align=left;" vertex="1" parent="qw0dFXDPhThTfiMplLx7-41">
          <mxGeometry width="95" height="80" as="geometry">
            <mxRectangle width="95" height="80" as="alternateBounds" />
          </mxGeometry>
        </mxCell>
        <mxCell id="qw0dFXDPhThTfiMplLx7-42" value="8" style="shape=partialRectangle;html=1;whiteSpace=wrap;connectable=0;strokeColor=inherit;overflow=hidden;fillColor=none;top=0;left=0;bottom=0;right=0;pointerEvents=1;fontSize=16;align=left;" vertex="1" parent="qw0dFXDPhThTfiMplLx7-41">
          <mxGeometry x="95" width="95" height="80" as="geometry">
            <mxRectangle width="95" height="80" as="alternateBounds" />
          </mxGeometry>
        </mxCell>
        <mxCell id="qw0dFXDPhThTfiMplLx7-43" value="21" style="shape=partialRectangle;html=1;whiteSpace=wrap;connectable=0;strokeColor=inherit;overflow=hidden;fillColor=none;top=0;left=0;bottom=0;right=0;pointerEvents=1;fontSize=16;align=left;" vertex="1" parent="qw0dFXDPhThTfiMplLx7-41">
          <mxGeometry x="190" width="95" height="80" as="geometry">
            <mxRectangle width="95" height="80" as="alternateBounds" />
          </mxGeometry>
        </mxCell>
        <mxCell id="qw0dFXDPhThTfiMplLx7-44" value="22" style="shape=partialRectangle;html=1;whiteSpace=wrap;connectable=0;strokeColor=inherit;overflow=hidden;fillColor=none;top=0;left=0;bottom=0;right=0;pointerEvents=1;fontSize=16;align=left;" vertex="1" parent="qw0dFXDPhThTfiMplLx7-41">
          <mxGeometry x="285" width="95" height="80" as="geometry">
            <mxRectangle width="95" height="80" as="alternateBounds" />
          </mxGeometry>
        </mxCell>
        <mxCell id="qw0dFXDPhThTfiMplLx7-51" value="35" style="shape=partialRectangle;html=1;whiteSpace=wrap;connectable=0;strokeColor=inherit;overflow=hidden;fillColor=none;top=0;left=0;bottom=0;right=0;pointerEvents=1;fontSize=16;align=left;" vertex="1" parent="qw0dFXDPhThTfiMplLx7-41">
          <mxGeometry x="380" width="95" height="80" as="geometry">
            <mxRectangle width="95" height="80" as="alternateBounds" />
          </mxGeometry>
        </mxCell>
        <mxCell id="qw0dFXDPhThTfiMplLx7-58" value="36" style="shape=partialRectangle;html=1;whiteSpace=wrap;connectable=0;strokeColor=inherit;overflow=hidden;fillColor=none;top=0;left=0;bottom=0;right=0;pointerEvents=1;fontSize=16;align=left;" vertex="1" parent="qw0dFXDPhThTfiMplLx7-41">
          <mxGeometry x="475" width="95" height="80" as="geometry">
            <mxRectangle width="95" height="80" as="alternateBounds" />
          </mxGeometry>
        </mxCell>
        <mxCell id="qw0dFXDPhThTfiMplLx7-68" value="Fixed length Image&lt;br&gt;1：FrameID" style="rounded=0;whiteSpace=wrap;html=1;fillColor=#D5E8D4;strokeColor=none;" vertex="1" parent="1">
          <mxGeometry x="-40" y="95" width="120" height="60" as="geometry" />
        </mxCell>
        <mxCell id="qw0dFXDPhThTfiMplLx7-69" value="" style="shape=curlyBracket;whiteSpace=wrap;html=1;rounded=1;labelPosition=left;verticalLabelPosition=middle;align=right;verticalAlign=middle;fillColor=#D5E8D4;" vertex="1" parent="1">
          <mxGeometry x="80" y="80" width="20" height="90" as="geometry" />
        </mxCell>
        <mxCell id="qw0dFXDPhThTfiMplLx7-71" value="Overlap" style="rounded=0;whiteSpace=wrap;html=1;fillColor=#fff2cc;strokeColor=#d6b656;align=left;" vertex="1" parent="1">
          <mxGeometry x="100" y="160" width="570" height="10" as="geometry" />
        </mxCell>
        <mxCell id="qw0dFXDPhThTfiMplLx7-72" value="Overlap" style="rounded=0;whiteSpace=wrap;html=1;fillColor=#fff2cc;strokeColor=#d6b656;align=left;" vertex="1" parent="1">
          <mxGeometry x="100" y="240" width="570" height="10" as="geometry" />
        </mxCell>
        <mxCell id="qw0dFXDPhThTfiMplLx7-73" value="Overlap" style="rounded=0;whiteSpace=wrap;html=1;fillColor=#fff2cc;strokeColor=#d6b656;align=left;" vertex="1" parent="1">
          <mxGeometry x="100" y="320" width="570" height="10" as="geometry" />
        </mxCell>
        <mxCell id="qw0dFXDPhThTfiMplLx7-74" value="Overlap" style="rounded=0;whiteSpace=wrap;html=1;fillColor=#fff2cc;strokeColor=#d6b656;align=left;" vertex="1" parent="1">
          <mxGeometry x="100" y="400" width="570" height="10" as="geometry" />
        </mxCell>
        <mxCell id="qw0dFXDPhThTfiMplLx7-75" value="Overlap" style="rounded=0;whiteSpace=wrap;html=1;fillColor=#fff2cc;strokeColor=#d6b656;align=left;" vertex="1" parent="1">
          <mxGeometry x="100" y="480" width="570" height="10" as="geometry" />
        </mxCell>
        <mxCell id="qw0dFXDPhThTfiMplLx7-76" value="Overlap" style="rounded=0;whiteSpace=wrap;html=1;fillColor=#fff2cc;strokeColor=#d6b656;align=left;" vertex="1" parent="1">
          <mxGeometry x="100" y="560" width="570" height="10" as="geometry" />
        </mxCell>
        <mxCell id="qw0dFXDPhThTfiMplLx7-79" value="overlap" style="rounded=0;whiteSpace=wrap;html=1;fillColor=#D5E8D4;rotation=90;" vertex="1" parent="1">
          <mxGeometry x="-90" y="355" width="560" height="10" as="geometry" />
        </mxCell>
        <mxCell id="qw0dFXDPhThTfiMplLx7-80" value="overlap" style="rounded=0;whiteSpace=wrap;html=1;fillColor=#D5E8D4;rotation=90;" vertex="1" parent="1">
          <mxGeometry x="10" y="355" width="560" height="10" as="geometry" />
        </mxCell>
        <mxCell id="qw0dFXDPhThTfiMplLx7-81" value="overlap" style="rounded=0;whiteSpace=wrap;html=1;fillColor=#D5E8D4;rotation=90;" vertex="1" parent="1">
          <mxGeometry x="100" y="355" width="560" height="10" as="geometry" />
        </mxCell>
        <mxCell id="qw0dFXDPhThTfiMplLx7-82" value="overlap" style="rounded=0;whiteSpace=wrap;html=1;fillColor=#D5E8D4;rotation=90;" vertex="1" parent="1">
          <mxGeometry x="200" y="355" width="560" height="10" as="geometry" />
        </mxCell>
        <mxCell id="qw0dFXDPhThTfiMplLx7-83" value="overlap" style="rounded=0;whiteSpace=wrap;html=1;fillColor=#D5E8D4;rotation=90;" vertex="1" parent="1">
          <mxGeometry x="290" y="355" width="560" height="10" as="geometry" />
        </mxCell>
        <mxCell id="qw0dFXDPhThTfiMplLx7-85" value="" style="html=1;shadow=0;dashed=0;align=center;verticalAlign=middle;shape=mxgraph.arrows2.arrow;dy=0.6;dx=40;direction=south;notch=0;fillColor=#D5E8D4;fontColor=none;noLabel=1;strokeColor=none;" vertex="1" parent="1">
          <mxGeometry x="120" y="650" width="50" height="70" as="geometry" />
        </mxCell>
        <mxCell id="qw0dFXDPhThTfiMplLx7-86" value="" style="html=1;shadow=0;dashed=0;align=center;verticalAlign=middle;shape=mxgraph.arrows2.arrow;dy=0.6;dx=40;direction=north;notch=0;fillColor=#D5E8D4;fontColor=none;noLabel=1;strokeColor=none;" vertex="1" parent="1">
          <mxGeometry x="210" y="650" width="52" height="70" as="geometry" />
        </mxCell>
        <mxCell id="qw0dFXDPhThTfiMplLx7-88" value="" style="html=1;shadow=0;dashed=0;align=center;verticalAlign=middle;shape=mxgraph.arrows2.arrow;dy=0.6;dx=40;direction=south;notch=0;fillColor=#D5E8D4;fontColor=none;noLabel=1;strokeColor=none;" vertex="1" parent="1">
          <mxGeometry x="309" y="650" width="50" height="70" as="geometry" />
        </mxCell>
        <mxCell id="qw0dFXDPhThTfiMplLx7-89" value="" style="html=1;shadow=0;dashed=0;align=center;verticalAlign=middle;shape=mxgraph.arrows2.arrow;dy=0.6;dx=40;direction=north;notch=0;fillColor=#D5E8D4;fontColor=none;noLabel=1;strokeColor=none;" vertex="1" parent="1">
          <mxGeometry x="399" y="650" width="52" height="70" as="geometry" />
        </mxCell>
        <mxCell id="qw0dFXDPhThTfiMplLx7-90" value="" style="html=1;shadow=0;dashed=0;align=center;verticalAlign=middle;shape=mxgraph.arrows2.arrow;dy=0.6;dx=40;direction=south;notch=0;fillColor=#D5E8D4;fontColor=none;noLabel=1;strokeColor=none;" vertex="1" parent="1">
          <mxGeometry x="503" y="650" width="50" height="70" as="geometry" />
        </mxCell>
        <mxCell id="qw0dFXDPhThTfiMplLx7-91" value="" style="html=1;shadow=0;dashed=0;align=center;verticalAlign=middle;shape=mxgraph.arrows2.arrow;dy=0.6;dx=40;direction=north;notch=0;fillColor=#D5E8D4;fontColor=none;noLabel=1;strokeColor=none;" vertex="1" parent="1">
          <mxGeometry x="593" y="650" width="52" height="70" as="geometry" />
        </mxCell>
        <mxCell id="qw0dFXDPhThTfiMplLx7-92" value="Scan direction" style="rounded=0;whiteSpace=wrap;html=1;fillColor=#D5E8D4;strokeColor=none;" vertex="1" parent="1">
          <mxGeometry x="-40" y="650" width="120" height="60" as="geometry" />
        </mxCell>
      </root>
    </mxGraphModel>
  </diagram>
</mxfile>
